<?xml version="1.0" encoding="utf-8"?>
<!-- Generator: Adobe Illustrator 18.1.0, SVG Export Plug-In . SVG Version: 6.00 Build 0)  -->
<svg version="1.1" id="Neo4j" xmlns="http://www.w3.org/2000/svg" xmlns:xlink="http://www.w3.org/1999/xlink" x="0px" y="0px"
	 viewBox="-10 0 290 300" enable-background="new -10 0 290 300" xml:space="preserve">
<g>
	<path fill="#008CC1" d="M244.7,139.2c0,60.7-49.2,109.8-109.8,109.8C74.2,249,25,199.8,25,139.2C25,78.5,74.2,29.3,134.8,29.3
		C195.5,29.3,244.7,78.5,244.7,139.2"/>
	<path fill="#FFFFFF" d="M73.7,103.2c0,4.9-3.9,8.8-8.8,8.8c-4.9,0-8.8-3.9-8.8-8.8c0-4.9,3.9-8.8,8.8-8.8
		C69.8,94.4,73.7,98.3,73.7,103.2"/>
	<path fill="#FFFFFF" d="M75.2,127.3c0,4.9-3.9,8.8-8.8,8.8c-4.9,0-8.8-3.9-8.8-8.8c0-4.9,3.9-8.8,8.8-8.8
		C71.3,118.5,75.2,122.4,75.2,127.3"/>
	<path fill="#FFFFFF" d="M80.6,152.8c0,4.9-3.9,8.8-8.8,8.8c-4.9,0-8.8-3.9-8.8-8.8c0-4.9,3.9-8.8,8.8-8.8
		C76.6,144,80.6,147.9,80.6,152.8"/>
	<path fill="#FFFFFF" d="M92.6,175.7c0,4.9-3.9,8.8-8.8,8.8c-4.9,0-8.8-3.9-8.8-8.8c0-4.9,3.9-8.8,8.8-8.8
		C88.7,166.9,92.6,170.8,92.6,175.7"/>
	<path fill="#FFFFFF" d="M186.6,207.7c0,4.9-3.9,8.8-8.8,8.8c-4.9,0-8.8-3.9-8.8-8.8c0-4.9,3.9-8.8,8.8-8.8
		C182.7,198.9,186.6,202.8,186.6,207.7"/>
	<path fill="#FFFFFF" d="M202.6,188.8c0,4.9-3.9,8.8-8.8,8.8c-4.9,0-8.8-3.9-8.8-8.8c0-4.9,3.9-8.8,8.8-8.8
		C198.7,180,202.6,183.9,202.6,188.8"/>
	<path fill="#FFFFFF" d="M156.3,55.2c0,4.9-3.9,8.8-8.8,8.8c-4.9,0-8.8-3.9-8.8-8.8c0-4.9,3.9-8.8,8.8-8.8
		C152.4,46.4,156.3,50.4,156.3,55.2"/>
	<path fill="#FFFFFF" d="M133.2,47.1c0,4.9-3.9,8.8-8.8,8.8c-4.9,0-8.8-3.9-8.8-8.8c0-4.9,3.9-8.8,8.8-8.8
		C129.3,38.3,133.2,42.3,133.2,47.1"/>
	<circle fill="#66B245" stroke="#FFFFFF" stroke-width="3.5" stroke-miterlimit="10" cx="195.5" cy="113" r="58.5"/>
	<circle fill="#66B245" stroke="#FFFFFF" stroke-width="3.5" stroke-miterlimit="10" cx="115.3" cy="232.3" r="47.9"/>
	<circle fill="#66B245" stroke="#FFFFFF" stroke-width="3.5" stroke-miterlimit="10" cx="75.9" cy="54.2" r="31.9"/>
</g>
</svg>
