<?xml version="1.0" encoding="UTF-8" standalone="no"?>
<!-- Created with Inkscape (http://www.inkscape.org/) -->

<svg
   xmlns:dc="http://purl.org/dc/elements/1.1/"
   xmlns:cc="http://creativecommons.org/ns#"
   xmlns:rdf="http://www.w3.org/1999/02/22-rdf-syntax-ns#"
   xmlns:svg="http://www.w3.org/2000/svg"
   xmlns="http://www.w3.org/2000/svg"
   xmlns:sodipodi="http://sodipodi.sourceforge.net/DTD/sodipodi-0.dtd"
   xmlns:inkscape="http://www.inkscape.org/namespaces/inkscape"
   version="1.1"
   id="svg1399"
   xml:space="preserve"
   width="122.66667"
   height="122.66667"
   viewBox="0 0 122.66667 122.66667"
   sodipodi:docname="logo-neo4j.svg"
   inkscape:version="0.92.4 (5da689c313, 2019-01-14)"><metadata
     id="metadata1405"><rdf:RDF><cc:Work
         rdf:about=""><dc:format>image/svg+xml</dc:format><dc:type
           rdf:resource="http://purl.org/dc/dcmitype/StillImage" /><dc:title></dc:title></cc:Work></rdf:RDF></metadata><defs
     id="defs1403"><clipPath
       clipPathUnits="userSpaceOnUse"
       id="clipPath1415"><path
         d="M 0,92 H 92 V 0 H 0 Z"
         id="path1413"
         inkscape:connector-curvature="0" /></clipPath></defs><sodipodi:namedview
     pagecolor="#ffffff"
     bordercolor="#666666"
     borderopacity="1"
     objecttolerance="10"
     gridtolerance="10"
     guidetolerance="10"
     inkscape:pageopacity="0"
     inkscape:pageshadow="2"
     inkscape:window-width="1858"
     inkscape:window-height="1057"
     id="namedview1401"
     showgrid="false"
     inkscape:zoom="7.2391301"
     inkscape:cx="61.954958"
     inkscape:cy="61.333336"
     inkscape:window-x="54"
     inkscape:window-y="-8"
     inkscape:window-maximized="1"
     inkscape:current-layer="g1407" /><g
     id="g1407"
     inkscape:groupmode="layer"
     inkscape:label="Neo4j-icon-color"
     transform="matrix(1.3333333,0,0,-1.3333333,0,122.66667)"><g
       id="g1409"><g
         id="g1411"
         clip-path="url(#clipPath1415)"><g
           id="g1417"
           transform="translate(49.21,68.8115)"><path
             d="m 0,0 c -10.578,0 -17.677,-6.158 -17.677,-18.112 v -8.519 c 1.038,0.495 2.196,0.781 3.422,0.781 1.241,0 2.412,-0.293 3.46,-0.799 v 8.537 c 0,7.752 4.275,11.737 10.795,11.737 6.521,0 10.796,-3.985 10.796,-11.737 v -18.62 h 6.882 v 18.62 C 17.678,-6.086 10.578,0 0,0"
             style="fill:#000000;fill-opacity:1;fill-rule:nonzero;stroke:none"
             id="path1419"
             inkscape:connector-curvature="0" /></g><g
           id="g1421"
           transform="translate(34.6816,40.8096)"><path
             d="m 0,0 c -1.33,0 -2.553,-0.447 -3.541,-1.193 l -6.48,4.427 c 0.143,0.508 0.225,1.041 0.225,1.594 0,3.248 -2.644,5.892 -5.892,5.892 -3.249,0 -5.892,-2.644 -5.892,-5.892 0,-3.249 2.643,-5.891 5.892,-5.891 1.33,0 2.554,0.448 3.541,1.194 l 6.48,-4.429 c -0.142,-0.508 -0.224,-1.041 -0.224,-1.594 0,-0.552 0.082,-1.085 0.224,-1.592 l -6.48,-4.429 c -0.987,0.746 -2.211,1.194 -3.541,1.194 -3.249,0 -5.892,-2.642 -5.892,-5.891 0,-3.249 2.643,-5.892 5.892,-5.892 3.248,0 5.892,2.643 5.892,5.892 0,0.552 -0.082,1.086 -0.225,1.593 l 6.48,4.428 c 0.988,-0.746 2.211,-1.193 3.541,-1.193 3.249,0 5.892,2.642 5.892,5.89 C 5.892,-2.643 3.249,0 0,0"
             style="fill:#018bff;fill-opacity:1;fill-rule:nonzero;stroke:none"
             id="path1423"
             inkscape:connector-curvature="0" /></g></g></g></g></svg>